<?xml version="1.0" encoding="UTF-8" standalone="no"?>
<svg
   xmlns:dc="http://purl.org/dc/elements/1.1/"
   xmlns:cc="http://creativecommons.org/ns#"
   xmlns:rdf="http://www.w3.org/1999/02/22-rdf-syntax-ns#"
   xmlns:svg="http://www.w3.org/2000/svg"
   xmlns="http://www.w3.org/2000/svg"
   y="0"
   x="0"
   width="491.25"
   version="1.0"
   id="svg1"
   height="391.59375">
  <defs
     id="defs3" />
  <path
     style="font-size:12px;fill-rule:evenodd;stroke-width:1pt"
     id="path713"
     d="m 0,0 c 18.58131,45.12604 61.46489,112.66404 98.53125,154.78125 l 4.0625,-15.1875 C 84.9511,117.42659 67.49051,85.88056 57.21875,60.90625 c 29.86013,14.59949 79.13561,28.70153 91.4375,31.78125 41.42592,11.20894 101.2016,20.46919 144.90625,22.8125 11.38373,12.16866 16.85707,24.88177 23.84375,36.46875 l 9,-7.625 c -6.80843,-9.0118 -20.15409,-29.59027 -35.625,-48.46875 -16.12684,-20.48656 -52.07658,-61.84961 -92,-90.0625 -21.58642,24.90742 -33.37858,39.67037 -49.75,68.59375 l 21.5625,4.03125 C 174.66954,71.09423 179.4687,63.36673 184.25,56.21875 l 11.96875,4.59375 -2.6875,-17.59375 c 1.19103,-1.56453 2.42181,-3.26716 3.53125,-4.625 34.15159,17.86994 64.39371,41.71898 87.59375,65.5625 C 198.53919,104.46625 85.54711,70.98233 0,0 Z m 77.25,81.5625 22.59375,36.59375 9.75,-3.65625 L 77.25,81.5625 Z m 414,12.625 c -69.84999,5.41471 -95.05278,13.17831 -173.21875,13.1875 l 5.46875,8.25 c 22.74083,3.15038 46.36966,6.26286 65.0625,7.5 -17.25183,10.3511 -50.63589,31.25359 -64.84375,39.6875 -25.30693,14.5139 -70.14,41.71416 -105.21875,71.53125 -31.97469,-17.2821 -56.55712,-39.71966 -85.09375,-63.28125 l -2.34375,10.625 c 27.30239,33.79176 71.51488,67.36815 125.4375,102.09375 54.15429,33.72748 118.20205,56.44159 166.5625,61.875 -23.80434,-68.16702 -42.72708,-119.99664 -66.53125,-167.5 l -19.34375,7.3125 c 19.81635,41.19147 39.16642,81.10233 51.46875,121.375 -14.24473,-0.75068 -32.9411,-6.86856 -49.4375,-11.84375 15.4909,10.00756 28.04744,14.1377 38.71875,20.59375 -25.88077,-4.48705 -70.5735,-23.29746 -95.65625,-39 l 45.15625,14.09375 c -19.98215,-11.8399 -35.81698,-21.38459 -55.03125,-36.25 -3.27255,2.54005 -6.45328,6.05071 -9.8125,10.875 -7.06725,-2.30971 -29.53067,-20.85592 -33.9375,-23.75 33.19902,-26.83031 64.38489,-48.1883 96.65625,-65.8125 31.56127,-17.51326 105.57583,-54.90276 165.9375,-81.5625 z m -354.78125,3.84375 c -7.98988,12.41744 -22.56181,51.37893 -29.375,70.09375 -18.2286,49.40528 -29.26368,143.27532 -19.375,215.9375 3.35417,0.88542 10.36458,6.64583 13.71875,7.53125 36.38373,-50.51268 63.10654,-87.58598 100,-123 l -13.15625,-11.4375 c -24.04999,19.97778 -55.83365,51.74575 -82.0625,83.5625 -1.48898,-17.58335 0.50661,-39.54387 3,-57.625 -5.64142,6.97155 -11.28286,21.41006 -13.9375,29.875 -0.66386,-20.7478 3.15244,-40.9978 6.96875,-60.75 2.81203,5.04571 6.27661,8.72339 9.25,12.5 -0.72275,-24.09297 5.22404,-89.44287 8.40625,-101.375 4.49827,-18.29805 15.51008,-41.84617 23.65625,-59.9375 l -7.09375,-5.375 z m 70.125,12.8125 c 7.17947,11.06882 10.86287,29.63238 4.875,40.84375 -2.75127,4.92098 -2.72881,9.83182 -0.71875,14.46875 l 10.46875,-11.40625 -4.5625,19.6875 c 4.29524,4.32768 10.11625,8.20892 16.75,11.40625 -0.41553,-8.3959 -3.78525,-11.65513 3.0625,-18.90625 5.63048,-5.46063 16.48422,-9.62718 0.59375,-21.34375 -4.55227,-3.49054 -7.60004,-12.51654 -10.34375,-17.6875 -6.29856,-12.48063 -14.65157,-15.18157 -20.125,-17.0625 z m 50,15.5 c -6.83685,0.11878 -13.58053,0.56212 -19.375,0.96875 l 2.65625,7.625 c 11.06032,-1.09005 44.89045,1.97545 43.6875,10.0625 -1.10166,7.96463 -28.79896,23.40346 -44.65625,26.65625 l 0.75,5.03125 c 19.92488,-3.86299 59.36819,-22.09333 59.15625,-34.15625 -0.24027,-14.13214 -21.7082,-16.54385 -42.21875,-16.1875 z M 204.75,134.625 c -19.92487,3.86299 -62.53708,17.81442 -62.21875,29.875 0.32036,11.52352 41.46557,14.43674 61.59375,15.25 l -3.875,-10.0625 c -11.06033,1.09003 -42.5653,-3.76299 -42.46875,-7.625 0.10675,-4.27058 31.86146,-19.15346 47.71875,-22.40625 l -0.75,-5.03125 z m -53.6875,102.46875 -7.3125,0.59375 -0.625,25.03125 7.9375,-25.625 z m 196.40625,0.59375 c -3.25304,1.62652 -6.49696,3.24849 -9.75,4.875 16.46851,14.842 26.83122,29.68925 40.25,44.53125 -7.72597,-16.46852 -22.1641,-39.03716 -30.5,-49.40625 z m -40.25,7.34375 c -3.04973,3.25307 -6.10652,6.49696 -9.15625,9.75 20.94143,6.9127 43.10828,19.91256 61,29.875 -13.01217,-11.99562 -32.73214,-28.8493 -51.84375,-39.625 z" />
  <metadata
     id="metadata3384">
    <rdf:RDF>
      <cc:Work>
        <dc:format>image/svg+xml</dc:format>
        <dc:type
           rdf:resource="http://purl.org/dc/dcmitype/StillImage" />
        <cc:license
           rdf:resource="http://creativecommons.org/publicdomain/zero/1.0/" />
        <dc:publisher>
          <cc:Agent
             rdf:about="http://openclipart.org/">
            <dc:title>Open Clip Art Library</dc:title>
          </cc:Agent>
        </dc:publisher>
        <dc:title></dc:title>
        <dc:date>2010-05-20T03:13:19</dc:date>
        <dc:description>originally uploaded by Nurbldoff from OCAL 0.18</dc:description>
        <dc:source>http://openclipart.org/detail/61327/elder-sign-nubldoff-01r-by-anonymous</dc:source>
        <dc:creator>
          <cc:Agent>
            <dc:title>Anonymous</dc:title>
          </cc:Agent>
        </dc:creator>
        <dc:subject>
          <rdf:Bag>
            <rdf:li>clip art</rdf:li>
            <rdf:li>clipart</rdf:li>
            <rdf:li>lovecraft</rdf:li>
            <rdf:li>pentagram</rdf:li>
            <rdf:li>religion</rdf:li>
            <rdf:li>symbol</rdf:li>
          </rdf:Bag>
        </dc:subject>
      </cc:Work>
      <cc:License
         rdf:about="http://creativecommons.org/publicdomain/zero/1.0/">
        <cc:permits
           rdf:resource="http://creativecommons.org/ns#Reproduction" />
        <cc:permits
           rdf:resource="http://creativecommons.org/ns#Distribution" />
        <cc:permits
           rdf:resource="http://creativecommons.org/ns#DerivativeWorks" />
      </cc:License>
    </rdf:RDF>
  </metadata>
</svg>
